<?xml version="1.0" encoding="UTF-8" standalone="no"?>
<!-- Created with Inkscape (http://www.inkscape.org/) -->
<svg
   xmlns:dc="http://purl.org/dc/elements/1.1/"
   xmlns:cc="http://creativecommons.org/ns#"
   xmlns:rdf="http://www.w3.org/1999/02/22-rdf-syntax-ns#"
   xmlns:svg="http://www.w3.org/2000/svg"
   xmlns="http://www.w3.org/2000/svg"
   xmlns:sodipodi="http://sodipodi.sourceforge.net/DTD/sodipodi-0.dtd"
   xmlns:inkscape="http://www.inkscape.org/namespaces/inkscape"
   width="660"
   height="305"
   id="svg2"
   sodipodi:version="0.32"
   inkscape:version="0.46"
   version="1.1"
   sodipodi:docname="TM logo.svg"
   inkscape:output_extension="org.inkscape.output.svg.inkscape">
  <sodipodi:namedview
     id="base"
     pagecolor="#ffffff"
     bordercolor="#666666"
     borderopacity="1.0"
     gridtolerance="10000"
     guidetolerance="10"
     objecttolerance="10"
     inkscape:pageopacity="0.0"
     inkscape:pageshadow="2"
     inkscape:zoom="0.98994949"
     inkscape:cx="413.88084"
     inkscape:cy="223.14108"
     inkscape:document-units="px"
     inkscape:current-layer="svg2"
     showgrid="false"
     inkscape:window-width="1024"
     inkscape:window-height="746"
     inkscape:window-x="0"
     inkscape:window-y="0" />
  <defs
     id="defs4">
    <inkscape:perspective
       id="perspective10"
       inkscape:persp3d-origin="372.04724 : 350.78739 : 1"
       inkscape:vp_z="744.09448 : 526.18109 : 1"
       inkscape:vp_y="0 : 1000 : 0"
       inkscape:vp_x="0 : 526.18109 : 1"
       sodipodi:type="inkscape:persp3d" />
    <inkscape:perspective
       sodipodi:type="inkscape:persp3d"
       inkscape:vp_x="0 : 526.18109 : 1"
       inkscape:vp_y="0 : 1000 : 0"
       inkscape:vp_z="744.09448 : 526.18109 : 1"
       inkscape:persp3d-origin="372.04724 : 350.78739 : 1"
       id="perspective2447" />
    <inkscape:perspective
       sodipodi:type="inkscape:persp3d"
       inkscape:vp_x="0 : 526.18109 : 1"
       inkscape:vp_y="0 : 1000 : 0"
       inkscape:vp_z="744.09448 : 526.18109 : 1"
       inkscape:persp3d-origin="372.04724 : 350.78739 : 1"
       id="perspective3356" />
    <inkscape:perspective
       id="perspective2540"
       inkscape:persp3d-origin="372.04724 : 350.78739 : 1"
       inkscape:vp_z="744.09448 : 526.18109 : 1"
       inkscape:vp_y="0 : 1000 : 0"
       inkscape:vp_x="0 : 526.18109 : 1"
       sodipodi:type="inkscape:persp3d" />
  </defs>
  <metadata
     id="Logo TM">
    <rdf:RDF>
      <cc:Work
         rdf:about="">
        <dc:format>image/svg+xml</dc:format>
        <dc:type
           rdf:resource="http://purl.org/dc/dcmitype/StillImage" />
      </cc:Work>
    </rdf:RDF>
  </metadata>
  <path
     style="fill:#244a86;fill-opacity:1;stroke:none"
     d="M 46.791403,304.20429 C 46.791403,303.70354 53.119302,281.64019 59.45516,260.04983 C 62.634454,249.21594 66.29357,236.16058 67.586545,231.0379 C 68.8795,225.91524 73.139071,210.79087 77.05222,197.42822 C 80.965389,184.06558 84.167047,172.46057 84.167047,171.63936 C 84.167047,170.34658 78.678555,170.14625 43.255869,170.14625 C 20.754721,170.14625 2.3446909,169.92551 2.3446909,169.65572 C 2.3446909,169.38593 4.8202516,164.04475 7.8459413,157.78643 C 16.819672,139.22522 23.371875,134.44271 42.14859,132.74864 C 54.918181,131.59655 244.47399,131.45615 245.17987,132.59827 C 246.09955,134.0863 237.67762,145.81309 230.27001,153.35899 C 216.68568,167.19695 210.23703,169.24264 177.60616,170.06547 L 154.37265,170.65133 L 150.70434,183.27824 C 148.68675,190.22303 144.07431,206.13294 140.45445,218.63358 C 136.83461,231.13421 130.24751,253.86265 125.81647,269.1412 C 121.38541,284.41976 117.34418,298.51139 116.83592,300.45593 L 115.91182,303.99147 L 81.351611,304.25726 C 62.3435,304.40346 46.791403,304.37962 46.791403,304.2043 L 46.791403,304.20429 z"
     id="Coporate Blue T" />
  <path
     style="fill:#244a86;fill-opacity:1;stroke:none"
     d="M 201.609,302.24016 C 201.88731,300.98104 204.84901,290.40491 208.19054,278.73765 C 211.53208,267.07039 217.56654,245.93295 221.60046,231.76556 C 225.63442,217.59817 230.45982,200.77913 232.32366,194.38991 C 234.1875,188.0007 237.33087,177.12285 239.30897,170.21691 C 241.28709,163.31098 243.81442,155.87905 244.92532,153.70151 C 248.07703,147.52364 254.57408,141.1446 260.6347,138.27748 C 271.29519,133.23428 276.62107,132.66903 319.23996,132.05762 L 358.84832,131.48942 L 359.81797,133.89778 C 360.35125,135.22238 361.31771,143.12467 361.96567,151.45843 C 363.43864,170.40338 367.67992,219.26563 369.22135,235.04855 C 370.40653,247.18351 371.19214,248.75814 374.26128,245.15008 C 375.61572,243.55781 394.30923,212.59435 422.28758,165.60057 C 432.9971,147.61237 437.98343,141.70745 445.80166,137.7548 C 455.41481,132.89469 458.70892,132.58546 506.651,132.04258 C 546.75471,131.58846 551.91031,131.70631 552.44099,133.08924 C 553.07378,134.73832 552.85514,135.57442 542.4854,171.15641 C 538.84229,183.65704 533.74824,201.15794 531.16525,210.04728 C 521.79003,242.31207 517.32183,257.58517 516.38913,260.55491 C 515.86564,262.22166 514.05405,269.04019 512.36335,275.70719 C 510.67265,282.3742 508.15959,291.57922 506.77879,296.16278 L 504.26825,304.49654 L 469.87177,304.49654 L 435.47527,304.49654 L 436.09207,301.21355 C 436.43135,299.4079 438.47495,292.02116 440.63345,284.79857 C 442.79194,277.57598 448.50327,257.80224 453.3253,240.85693 C 458.14735,223.91162 463.88199,203.81183 466.06898,196.19072 C 468.25599,188.56961 470.04532,181.86472 470.04532,181.29097 C 470.04532,178.94536 466.31263,180.47158 464.56739,183.53077 C 461.92411,188.16411 428.40323,243.81172 420.75488,256.26333 C 417.25744,261.95717 413.25645,268.88866 411.86378,271.66658 C 403.73379,287.88319 393.97384,297.80918 382.43383,301.59725 C 376.06207,303.68885 373.33411,303.87053 342.4058,304.26343 C 323.79232,304.4999 308.82186,304.2914 308.31917,303.78871 C 307.82617,303.29573 306.29767,290.63902 304.92251,275.66272 C 303.54736,260.68639 301.04451,233.69819 299.36064,215.68888 C 297.67682,197.67958 296.29908,182.33788 296.29908,181.59623 C 296.29908,180.84993 295.22689,180.24778 293.89802,180.24778 C 291.8236,180.24778 291.29143,181.03793 289.98614,186.05616 C 289.15522,189.25076 284.27554,206.18344 279.14245,223.68434 C 274.00935,241.18523 268.74176,259.36798 267.43666,264.09044 C 265.18862,272.22485 260.35529,289.50951 257.55018,299.44578 L 256.26692,303.99147 L 228.6849,304.26047 L 201.10293,304.52946 L 201.609,302.24016 z"
     id="Coporate Blue M" />
  <path
     style="fill:#eb8300;fill-opacity:1;stroke:none"
     d="M 443.78135,111.34593 C 443.78135,111.07133 447.33213,107.21871 451.67198,102.78454 C 465.68806,88.463833 468.60582,75.978741 460.2556,66.055063 C 451.18766,55.278402 422.68406,49.394496 391.67064,51.89727 C 357.20403,54.678705 321.24666,63.230869 278.62141,78.785107 C 272.70797,80.942974 298.72427,58.197177 313.69647,48.11935 C 332.28032,35.61052 355.15391,23.777936 375.18477,16.311273 C 384.30396,12.912018 409.09756,6.3814025 418.02246,5.0278485 C 446.79231,0.66462594 481.86298,4.4167669 502.08883,14.021984 C 526.41839,25.576038 538.59334,46.089903 531.7735,64.038294 C 524.5398,83.07581 500.29421,99.329933 466.26249,107.95652 C 456.28124,110.48665 443.78135,112.37121 443.78135,111.34593 z"
     id="Coporate Orange" />
  <path
     style="fill:#da0011;fill-opacity:1;stroke:none"
     d="M 525.60371,89.357232 C 536.64531,79.480445 565.33994,62.436576 581.66718,56.056967 C 595.93747,50.481077 606.08384,48.631235 619.87525,49.091046 C 629.99776,49.428518 631.8599,49.795052 637.89088,52.636964 C 650.94525,58.78841 657.06354,67.985606 657.75753,82.501044 C 658.20906,91.945899 658.08885,92.150304 653.20123,90.246984 C 646.98606,87.826709 626.36087,84.208141 612.81619,83.161683 C 596.42139,81.895003 577.33371,82.937278 554.39306,86.351826 C 540.9949,88.346039 527.55804,90.820519 523.7842,91.988629 C 522.84038,92.280765 523.65917,91.096634 525.60371,89.357232 z"
     id="Coporate Red" />
</svg>
