<svg version="1.1" id="Layer_1" xmlns="http://www.w3.org/2000/svg" xmlns:xlink="http://www.w3.org/1999/xlink" x="0px" y="0px"
	 width="100%" viewBox="0 0 360 360" enable-background="new 0 0 360 360" xml:space="preserve">
<path fill="#FEFFFF" opacity="1.000000" stroke="none" 
	d="
M162.000000,361.000000 
	C108.018562,361.000000 54.537132,361.000000 1.027848,361.000000 
	C1.027848,241.060211 1.027848,121.120415 1.027848,1.090312 
	C120.898094,1.090312 240.796280,1.090312 360.847229,1.090312 
	C360.847229,120.999847 360.847229,240.999908 360.847229,361.000000 
	C294.787109,361.000000 228.643555,361.000000 162.000000,361.000000 
M161.418579,204.019485 
	C161.359528,203.638901 161.300476,203.258301 161.481903,201.980133 
	C161.410370,193.701294 161.338837,185.422440 161.442871,176.427429 
	C161.383362,175.229279 161.323837,174.031128 161.827148,172.445847 
	C163.513077,174.325516 165.328094,176.106277 166.859039,178.104675 
	C170.455658,182.799530 173.916504,187.598404 177.991516,193.111801 
	C183.558411,185.827515 188.552338,179.292938 193.546265,172.758377 
	C193.940277,172.965912 194.334305,173.173447 194.728317,173.380966 
	C194.728317,184.137466 194.728317,194.893951 194.728317,205.727661 
	C198.034103,205.727661 200.886963,205.727661 203.728561,205.727661 
	C203.728561,189.419220 203.728561,173.516083 203.728561,157.704163 
	C196.928574,155.931625 192.076843,157.373032 188.559784,163.703186 
	C185.805466,168.660568 181.902359,172.979691 178.187531,178.019409 
	C174.368454,172.785614 170.605301,168.485123 167.847183,163.615417 
	C164.898849,158.409866 160.814697,157.444672 155.451721,157.901672 
	C152.454590,158.157059 151.568710,159.129333 152.315033,162.814941 
	C152.377533,167.193527 152.440018,171.572128 152.268204,176.707596 
	C152.346313,177.487122 152.424408,178.266632 152.312912,179.954346 
	C152.419327,186.387344 152.525742,192.820328 152.380615,199.928833 
	C152.476837,200.871124 152.573044,201.813400 152.569412,203.117279 
	C152.569412,203.117279 152.762680,203.438782 152.381897,203.881439 
	C152.598572,204.503464 152.815247,205.125488 153.481201,205.998627 
	C153.650665,205.971802 153.820129,205.944992 154.839325,206.075272 
	C156.562988,206.023010 158.286652,205.970749 160.531891,205.984406 
	C160.677216,205.886444 160.822525,205.788498 161.334213,205.602386 
	C161.386993,205.485291 161.502625,205.353973 161.479996,205.253952 
	C161.426239,205.016327 161.307007,204.793503 161.418579,204.019485 
M124.028374,213.074783 
	C124.028374,213.074783 124.138512,213.066711 124.778473,213.148209 
	C125.438980,213.626373 126.515221,214.644241 126.698586,214.502991 
	C130.356934,211.684952 132.955887,214.842697 136.395706,216.456619 
	C138.268692,218.349960 140.063385,220.328934 142.026596,222.123581 
	C165.895309,243.942673 204.390625,239.467957 222.669647,212.734848 
	C223.458130,211.581696 224.537903,209.893539 224.214066,208.846924 
	C223.087097,205.204742 221.401489,201.735397 219.748199,197.768204 
	C208.594360,219.818970 189.142181,229.873947 167.879318,224.836700 
	C147.990372,220.124924 133.759964,201.584290 133.647491,179.496277 
	C133.485733,147.730789 103.792473,123.596039 71.782288,127.988686 
	C44.289978,131.761368 23.591179,156.958405 25.265762,184.614136 
	C26.968708,212.738251 49.942272,235.268875 77.537552,235.981445 
	C95.581070,236.447327 110.129822,229.287277 122.434494,215.724579 
	C122.592110,215.398010 122.749725,215.071442 123.051376,214.294388 
	C123.051376,214.294388 123.389038,213.963226 123.685638,213.773422 
	C123.862579,213.609512 123.986267,213.412216 124.028374,213.074783 
M279.084076,186.389389 
	C279.215576,188.082520 279.347076,189.775665 279.503235,191.786331 
	C280.358734,191.930145 281.899597,192.189148 282.762024,192.334122 
	C282.116364,194.757904 281.554810,196.865952 280.118835,199.209763 
	C273.184113,200.078766 267.235107,198.513748 263.209015,191.947449 
	C260.592957,193.335068 258.191437,194.608871 255.961578,195.791641 
	C256.144897,196.621902 256.147766,196.798157 256.220001,196.938812 
	C261.924103,208.046112 279.787201,211.777985 291.187531,204.316299 
	C296.382965,200.915817 298.232941,196.048187 297.467438,190.151062 
	C296.502441,182.716858 291.375916,178.702423 281.446320,177.119141 
	C278.013184,176.571716 274.462463,176.247162 271.247070,175.058853 
	C269.564270,174.436935 267.345764,172.096664 267.430511,170.653503 
	C267.538971,168.806747 269.346680,166.308624 271.089966,165.454880 
	C275.667358,163.213211 281.014618,163.135468 284.818542,166.437256 
	C289.479645,170.483078 292.312927,168.039734 295.790100,165.472427 
	C290.197327,156.679855 278.732605,153.574768 267.722321,157.632126 
	C261.188568,160.039856 257.921356,164.368011 257.956757,170.568787 
	C257.993256,176.961227 261.053497,181.072693 267.906036,183.208954 
	C271.527069,184.337784 275.333771,184.871033 279.084076,186.389389 
M318.441711,196.701874 
	C311.042023,215.953369 293.140625,227.506500 273.152985,225.930054 
	C253.746262,224.399429 237.527298,210.155853 233.496170,190.640945 
	C232.426315,185.461624 232.588684,180.038681 231.981049,174.751068 
	C229.485092,153.031754 212.704865,134.169861 191.424622,129.050705 
	C169.097290,123.679665 145.860855,132.422104 133.532440,150.990479 
	C132.674103,152.283249 132.227051,154.413132 132.630020,155.864639 
	C133.534225,159.121704 135.094147,162.196732 136.598053,165.859634 
	C137.391525,164.349411 137.947739,163.351273 138.449631,162.326508 
	C147.813278,143.207596 168.983063,133.519104 189.548889,138.947250 
	C209.025391,144.087906 221.516525,160.493103 222.421509,182.120499 
	C223.884125,217.074097 253.518906,241.252548 287.236267,235.001587 
	C310.556671,230.678146 329.196777,210.018036 330.917206,186.587097 
	C332.773376,161.307755 318.067993,138.535904 294.685608,130.480942 
	C271.424622,122.467812 245.434570,130.954926 232.036682,151.053345 
	C231.231110,152.261795 230.637863,154.223221 231.030609,155.500809 
	C232.076965,158.904709 233.715942,162.126450 235.253815,165.736252 
	C247.982727,137.912460 274.844910,133.229797 293.045929,140.505142 
	C315.067932,149.307800 325.910980,172.793015 318.441711,196.701874 
M124.631004,216.474564 
	C124.841286,216.528503 125.051559,216.582428 125.261841,216.636368 
	C125.126854,216.504074 124.991867,216.371780 124.631004,216.474564 
M275.517120,197.414841 
	C275.517120,197.414841 275.581116,197.522903 275.517120,197.414841 
z"/>
<path fill="#2E81FB" opacity="1.000000" stroke="none" 
	d="
M318.594299,196.334961 
	C325.910980,172.793015 315.067932,149.307800 293.045929,140.505142 
	C274.844910,133.229797 247.982727,137.912460 235.253815,165.736252 
	C233.715942,162.126450 232.076965,158.904709 231.030609,155.500809 
	C230.637863,154.223221 231.231110,152.261795 232.036682,151.053345 
	C245.434570,130.954926 271.424622,122.467812 294.685608,130.480942 
	C318.067993,138.535904 332.773376,161.307755 330.917206,186.587097 
	C329.196777,210.018036 310.556671,230.678146 287.236267,235.001587 
	C253.518906,241.252548 223.884125,217.074097 222.421509,182.120499 
	C221.516525,160.493103 209.025391,144.087906 189.548889,138.947250 
	C168.983063,133.519104 147.813278,143.207596 138.449631,162.326508 
	C137.947739,163.351273 137.391525,164.349411 136.598053,165.859634 
	C135.094147,162.196732 133.534225,159.121704 132.630020,155.864639 
	C132.227051,154.413132 132.674103,152.283249 133.532440,150.990479 
	C145.860855,132.422104 169.097290,123.679665 191.424622,129.050705 
	C212.704865,134.169861 229.485092,153.031754 231.981049,174.751068 
	C232.588684,180.038681 232.426315,185.461624 233.496170,190.640945 
	C237.527298,210.155853 253.746262,224.399429 273.152985,225.930054 
	C293.140625,227.506500 311.042023,215.953369 318.594299,196.334961 
z"/>
<path fill="#2E81FB" opacity="1.000000" stroke="none" 
	d="
M121.940338,215.981812 
	C110.129822,229.287277 95.581070,236.447327 77.537552,235.981445 
	C49.942272,235.268875 26.968708,212.738251 25.265762,184.614136 
	C23.591179,156.958405 44.289978,131.761368 71.782288,127.988686 
	C103.792473,123.596039 133.485733,147.730789 133.647491,179.496277 
	C133.759964,201.584290 147.990372,220.124924 167.879318,224.836700 
	C189.142181,229.873947 208.594360,219.818970 219.748199,197.768204 
	C221.401489,201.735397 223.087097,205.204742 224.214066,208.846924 
	C224.537903,209.893539 223.458130,211.581696 222.669647,212.734848 
	C204.390625,239.467957 165.895309,243.942673 142.026596,222.123581 
	C140.063385,220.328934 138.268692,218.349960 136.049225,215.912048 
	C132.139175,208.243515 128.575607,201.119568 125.021103,193.608383 
	C124.891296,192.462723 124.752441,191.704269 124.642792,190.689270 
	C124.496803,190.144928 124.321617,189.857178 124.178864,189.131561 
	C124.121452,186.363297 123.988770,184.033615 123.948326,181.702332 
	C123.501930,155.968643 101.612381,135.245895 77.240395,137.498444 
	C49.526093,140.059906 31.416212,163.031372 35.993195,189.818405 
	C38.846050,206.514893 52.563774,221.014084 69.142120,224.855759 
	C86.839081,228.956650 104.997162,222.253708 115.171326,207.846115 
	C115.615250,207.586380 115.727966,207.346924 115.874344,206.828766 
	C116.106216,206.442200 116.161331,206.266998 116.475937,205.922272 
	C117.419205,204.494232 118.102982,203.235703 118.912399,201.804932 
	C119.038033,201.632690 119.095467,201.210205 119.356613,201.003098 
	C120.176483,199.993835 120.735207,199.191696 121.410477,198.222214 
	C122.504883,200.978424 123.168884,203.378418 124.363205,205.476578 
	C125.898399,208.173553 126.004349,210.587570 124.138512,213.066711 
	C124.138512,213.066711 124.028374,213.074783 123.863220,213.190308 
	C123.464211,213.463455 123.361206,213.682587 123.389038,213.963226 
	C123.389038,213.963226 123.051376,214.294388 122.733810,214.650345 
	C122.257614,215.331467 122.098976,215.656647 121.940338,215.981812 
z"/>
<path fill="#3184FB" opacity="1.000000" stroke="none" 
	d="
M160.010315,205.918472 
	C158.286652,205.970749 156.562988,206.023010 154.415070,205.631210 
	C153.550293,204.376663 153.109772,203.566177 152.669250,202.755692 
	C152.573044,201.813400 152.476837,200.871124 152.861603,199.302689 
	C153.552383,192.702118 153.802765,186.728394 153.905365,180.752121 
	C153.914993,180.191666 152.992325,179.615189 152.502518,179.046158 
	C152.424408,178.266632 152.346313,177.487122 152.732742,176.188950 
	C153.429276,170.811646 153.661255,165.952988 153.893250,161.094330 
	C153.429367,161.357971 152.965500,161.621613 152.501617,161.885254 
	C151.568710,159.129333 152.454590,158.157059 155.451721,157.901672 
	C160.814697,157.444672 164.898849,158.409866 167.847183,163.615417 
	C170.605301,168.485123 174.368454,172.785614 178.187531,178.019409 
	C181.902359,172.979691 185.805466,168.660568 188.559784,163.703186 
	C192.076843,157.373032 196.928574,155.931625 203.728561,157.704163 
	C203.728561,173.516083 203.728561,189.419220 203.728561,205.727661 
	C200.886963,205.727661 198.034103,205.727661 194.728317,205.727661 
	C194.728317,194.893951 194.728317,184.137466 194.728317,173.380966 
	C194.334305,173.173447 193.940277,172.965912 193.546265,172.758377 
	C188.552338,179.292938 183.558411,185.827515 177.991516,193.111801 
	C173.916504,187.598404 170.455658,182.799530 166.859039,178.104675 
	C165.328094,176.106277 163.513077,174.325516 161.303009,172.551895 
	C160.941666,174.153168 161.104477,175.648376 161.267303,177.143600 
	C161.338837,185.422440 161.410370,193.701294 161.064484,202.620865 
	C160.434799,204.147217 160.222549,205.032852 160.010315,205.918472 
z"/>
<path fill="#3082FA" opacity="1.000000" stroke="none" 
	d="
M279.056641,185.673187 
	C275.333771,184.871033 271.527069,184.337784 267.906036,183.208954 
	C261.053497,181.072693 257.993256,176.961227 257.956757,170.568787 
	C257.921356,164.368011 261.188568,160.039856 267.722321,157.632126 
	C278.732605,153.574768 290.197327,156.679855 295.790100,165.472427 
	C292.312927,168.039734 289.479645,170.483078 284.818542,166.437256 
	C281.014618,163.135468 275.667358,163.213211 271.089966,165.454880 
	C269.346680,166.308624 267.538971,168.806747 267.430511,170.653503 
	C267.345764,172.096664 269.564270,174.436935 271.247070,175.058853 
	C274.462463,176.247162 278.013184,176.571716 281.446320,177.119141 
	C291.375916,178.702423 296.502441,182.716858 297.467438,190.151062 
	C298.232941,196.048187 296.382965,200.915817 291.187531,204.316299 
	C279.787201,211.777985 261.924103,208.046112 256.220001,196.938812 
	C256.147766,196.798157 256.144897,196.621902 255.961578,195.791641 
	C258.191437,194.608871 260.592957,193.335068 263.209015,191.947449 
	C267.235107,198.513748 273.184113,200.078766 280.931946,199.123627 
	C285.502075,198.222977 288.838440,196.260681 287.973907,192.166779 
	C287.490204,189.876205 284.520355,187.995102 282.422882,186.222839 
	C281.677856,185.593353 280.199982,185.831253 279.056641,185.673187 
z"/>
<path fill="#EFF7F8" opacity="1.000000" stroke="none" 
	d="
M125.012054,193.995605 
	C128.575607,201.119568 132.139175,208.243515 135.796951,215.689728 
	C132.955887,214.842697 130.356934,211.684952 126.698586,214.502991 
	C126.515221,214.644241 125.438980,213.626373 124.458496,213.107452 
	C126.004349,210.587570 125.898399,208.173553 124.363205,205.476578 
	C123.168884,203.378418 122.504883,200.978424 121.410477,198.222214 
	C120.735207,199.191696 120.176483,199.993835 119.294693,200.622650 
	C118.619339,198.950333 118.267044,197.451340 118.149094,196.949463 
	C120.912239,195.760178 122.962143,194.877884 125.012054,193.995605 
z"/>
<path fill="#F0F7F7" opacity="1.000000" stroke="none" 
	d="
M279.070374,186.031281 
	C280.199982,185.831253 281.677856,185.593353 282.422882,186.222839 
	C284.520355,187.995102 287.490204,189.876205 287.973907,192.166779 
	C288.838440,196.260681 285.502075,198.222977 281.369141,199.005737 
	C281.554810,196.865952 282.116364,194.757904 282.762024,192.334122 
	C281.899597,192.189148 280.358734,191.930145 279.503235,191.786331 
	C279.347076,189.775665 279.215576,188.082520 279.070374,186.031281 
z"/>
<path fill="#1E76FA" opacity="1.000000" stroke="none" 
	d="
M152.407715,179.500244 
	C152.992325,179.615189 153.914993,180.191666 153.905365,180.752121 
	C153.802765,186.728394 153.552383,192.702118 152.987381,198.964935 
	C152.525742,192.820328 152.419327,186.387344 152.407715,179.500244 
z"/>
<path fill="#1E76FA" opacity="1.000000" stroke="none" 
	d="
M152.408325,162.350098 
	C152.965500,161.621613 153.429367,161.357971 153.893250,161.094330 
	C153.661255,165.952988 153.429276,170.811646 152.849899,175.810516 
	C152.440018,171.572128 152.377533,167.193527 152.408325,162.350098 
z"/>
<path fill="#1E76FA" opacity="1.000000" stroke="none" 
	d="
M161.355072,176.785522 
	C161.104477,175.648376 160.941666,174.153168 161.021576,172.745453 
	C161.323837,174.031128 161.383362,175.229279 161.355072,176.785522 
z"/>
<path fill="#1E76FA" opacity="1.000000" stroke="none" 
	d="
M152.619324,202.936493 
	C153.109772,203.566177 153.550293,204.376663 153.990204,205.552673 
	C153.820129,205.944992 153.650665,205.971802 153.246033,205.486145 
	C152.928131,204.462051 152.845413,203.950409 152.762680,203.438782 
	C152.762680,203.438782 152.569412,203.117279 152.619324,202.936493 
z"/>
<path fill="#1E76FA" opacity="1.000000" stroke="none" 
	d="
M160.271103,205.951447 
	C160.222549,205.032852 160.434799,204.147217 160.944229,203.069656 
	C161.300476,203.258301 161.359528,203.638901 161.229462,204.569244 
	C161.016159,205.309525 160.991989,205.500046 160.967819,205.690567 
	C160.822525,205.788498 160.677216,205.886444 160.271103,205.951447 
z"/>
<path fill="#EFF7F8" opacity="1.000000" stroke="none" 
	d="
M124.743942,216.357025 
	C124.991867,216.371780 125.126854,216.504074 125.261841,216.636353 
	C125.051559,216.582428 124.841286,216.528503 124.743942,216.357025 
z"/>
<path fill="#3184FB" opacity="1.000000" stroke="none" 
	d="
M152.572296,203.660110 
	C152.845413,203.950409 152.928131,204.462051 153.021393,205.360596 
	C152.815247,205.125488 152.598572,204.503464 152.572296,203.660110 
z"/>
<path fill="#3184FB" opacity="1.000000" stroke="none" 
	d="
M161.151016,205.646484 
	C160.991989,205.500046 161.016159,205.309525 161.127289,204.841858 
	C161.307007,204.793503 161.426239,205.016327 161.479996,205.253952 
	C161.502625,205.353973 161.386993,205.485291 161.151016,205.646484 
z"/>
<path fill="#EFF7F8" opacity="1.000000" stroke="none" 
	d="
M123.537338,213.868317 
	C123.361206,213.682587 123.464211,213.463455 123.877380,213.243683 
	C123.986267,213.412216 123.862579,213.609512 123.537338,213.868317 
z"/>
<path fill="#F0F7F7" opacity="1.000000" stroke="none" 
	d="
M275.549133,197.468872 
	C275.581116,197.522903 275.517120,197.414841 275.549133,197.468872 
z"/>
<path fill="#EFF7F8" opacity="1.000000" stroke="none" 
	d="
M122.187424,215.853195 
	C122.098976,215.656647 122.257614,215.331467 122.661804,214.875580 
	C122.749725,215.071442 122.592110,215.398010 122.187424,215.853195 
z"/>
<path fill="#FBFDFD" opacity="1.000000" stroke="none" 
	d="
M125.021103,193.608368 
	C122.962143,194.877884 120.912239,195.760178 118.149094,196.949463 
	C118.267044,197.451340 118.619339,198.950333 119.033554,200.829758 
	C119.095467,201.210205 119.038033,201.632690 118.596771,201.744629 
	C117.419533,201.010941 116.683556,200.165314 115.154625,198.408615 
	C115.614708,201.737701 115.915573,203.914734 116.216446,206.091782 
	C116.161331,206.266998 116.106216,206.442200 115.708588,206.935349 
	C115.166862,207.439819 115.039238,207.666656 114.983215,207.933762 
	C104.997162,222.253708 86.839081,228.956650 69.142120,224.855759 
	C52.563774,221.014084 38.846050,206.514893 35.993195,189.818405 
	C31.416212,163.031372 49.526093,140.059906 77.240395,137.498444 
	C101.612381,135.245895 123.501930,155.968643 123.948326,181.702332 
	C123.988770,184.033615 124.121452,186.363297 124.167725,189.388489 
	C124.287300,190.370789 124.450447,190.658310 124.613586,190.945831 
	C124.752441,191.704269 124.891296,192.462723 125.021103,193.608368 
M72.780922,206.025925 
	C82.815460,208.372192 92.102539,207.519653 99.716011,200.458496 
	C97.597046,197.986526 95.799797,195.889877 94.074669,193.877350 
	C84.458389,199.934601 74.758232,199.684464 69.069557,193.481094 
	C63.920094,187.865753 63.619438,177.668625 68.412697,171.202774 
	C73.585480,164.224960 82.526001,163.464371 93.893517,169.225357 
	C95.687653,167.523956 97.567589,165.741180 99.542938,163.867935 
	C91.202408,155.114700 81.214798,155.332947 71.485718,158.166412 
	C61.590618,161.048203 56.028229,170.439911 55.904270,181.414566 
	C55.768257,193.455856 60.749496,201.017059 72.780922,206.025925 
z"/>
<path fill="#EFF7F8" opacity="1.000000" stroke="none" 
	d="
M116.475937,205.922272 
	C115.915573,203.914734 115.614708,201.737701 115.154625,198.408615 
	C116.683556,200.165314 117.419533,201.010941 118.471130,201.916870 
	C118.102982,203.235703 117.419205,204.494232 116.475937,205.922272 
z"/>
<path fill="#EFF7F8" opacity="1.000000" stroke="none" 
	d="
M115.171326,207.846115 
	C115.039238,207.666656 115.166862,207.439819 115.531830,207.146698 
	C115.727966,207.346924 115.615250,207.586380 115.171326,207.846115 
z"/>
<path fill="#EFF7F8" opacity="1.000000" stroke="none" 
	d="
M124.642792,190.689270 
	C124.450447,190.658310 124.287300,190.370789 124.135300,189.826340 
	C124.321617,189.857178 124.496803,190.144928 124.642792,190.689270 
z"/>
<path fill="#2F82FA" opacity="1.000000" stroke="none" 
	d="
M72.386917,205.931030 
	C60.749496,201.017059 55.768257,193.455856 55.904270,181.414566 
	C56.028229,170.439911 61.590618,161.048203 71.485718,158.166412 
	C81.214798,155.332947 91.202408,155.114700 99.542938,163.867935 
	C97.567589,165.741180 95.687653,167.523956 93.893517,169.225357 
	C82.526001,163.464371 73.585480,164.224960 68.412697,171.202774 
	C63.619438,177.668625 63.920094,187.865753 69.069557,193.481094 
	C74.758232,199.684464 84.458389,199.934601 94.074669,193.877350 
	C95.799797,195.889877 97.597046,197.986526 99.716011,200.458496 
	C92.102539,207.519653 82.815460,208.372192 72.386917,205.931030 
z"/>
</svg>